<?xml version="1.0" encoding="UTF-8" standalone="no"?><!DOCTYPE svg PUBLIC "-//W3C//DTD SVG 1.1//EN" "http://www.w3.org/Graphics/SVG/1.1/DTD/svg11.dtd"><svg width="1644px" height="431px" version="1.1" xmlns="http://www.w3.org/2000/svg" xmlns:xlink="http://www.w3.org/1999/xlink" xml:space="preserve" xmlns:serif="http://www.serif.com/" style="fill-rule:evenodd;clip-rule:evenodd;stroke-linejoin:round;stroke-miterlimit:2;"><g><g><path d="M1537.77,232.228l-7.366,7.489l-115.717,115.594l-115.722,-115.594l-7.367,-7.489c-31.794,-31.795 -31.794,-83.917 0,-115.717c15.839,-15.961 36.833,-23.878 57.767,-23.878c20.933,0 41.933,7.917 57.894,23.878l7.428,7.489l7.367,-7.489c15.838,-15.961 36.894,-23.878 57.888,-23.878c20.934,0 41.989,7.917 57.828,23.878c31.8,31.8 31.8,83.922 0,115.717Zm68.322,-195.15c-24.677,-24.8 -57.394,-37.078 -89.994,-37.078c-32.594,-0 -65.317,12.278 -89.994,37.078l-11.417,11.6l-11.606,-11.6c-24.8,-24.8 -57.4,-37.078 -89.933,-37.078c-32.6,-0 -65.194,12.278 -89.872,37.078c-49.417,49.478 -49.417,130.511 -0,179.989l11.477,11.6l179.934,179.744l179.928,-179.744l11.477,-11.6c49.423,-49.478 49.423,-130.511 0,-179.989Z" style="fill:#d2ac95;fill-rule:nonzero;"/><path d="M132.778,46.5c-27.372,-0 -52.939,10.561 -72.006,29.739c-19.211,19.211 -29.772,44.839 -29.772,72.206c0,27.361 10.561,52.994 29.739,72.172l10.65,10.778l155.233,155.111l165.884,-165.889c19.177,-19.178 29.733,-44.811 29.733,-72.172c-0,-27.367 -10.556,-52.995 -29.733,-72.173c-19.095,-19.211 -44.717,-29.772 -72.173,-29.772c-27.455,-0 -53.072,10.561 -72.139,29.739l-21.5,21.772l-21.744,-21.739c-19.2,-19.2 -44.833,-29.772 -72.172,-29.772Zm93.844,383.822l-187.872,-187.861c-24.961,-24.961 -38.75,-58.378 -38.75,-94.016c0,-35.645 13.789,-69.062 38.822,-94.089c24.889,-25.045 58.272,-38.85 93.956,-38.85c35.472,-0 68.755,13.677 93.772,38.533c24.928,-24.867 58.194,-38.533 93.783,-38.533c35.773,-0 69.2,13.805 94.123,38.877c25,25 38.783,58.417 38.783,94.062c-0,35.622 -13.767,69.022 -38.772,94.044l-10.556,10.689l-177.289,177.144Z" style="fill:#d2ac95;fill-rule:nonzero;"/><path d="M1003.59,226.828c-0,0.005 -0.006,0.011 -0.006,0.011c0,0 0,-0.006 0.006,-0.006l-0,-0.005Zm-347.383,-3.733c1.627,0.211 3.216,0.955 4.733,2.472c15.405,15.405 19.839,26.544 24.128,37.311c3.877,9.739 7.544,18.944 20.694,32.083c13.15,13.139 22.356,16.795 32.1,20.667c10.778,4.278 21.917,8.7 37.333,24.105c13.484,13.467 17.728,29.856 21.15,43.017c4.906,18.928 7.567,26.617 24.289,26.617l0.023,-0c16.761,-0.006 19.427,-7.695 24.344,-26.645c3.417,-13.166 7.667,-29.555 21.156,-43.033c15.416,-15.394 26.555,-19.822 37.333,-24.1c9.739,-3.872 18.95,-7.528 32.1,-20.667c13.144,-13.133 16.8,-22.327 20.678,-32.061c4.283,-10.766 8.711,-21.894 24.105,-37.289c1.517,-1.516 3.111,-2.266 4.739,-2.477c0.183,-1.65 0.933,-3.267 2.461,-4.812c5.595,-5.683 12.245,-0.811 18.095,3.489c0.372,0.278 0.811,0.595 1.266,0.928c5.556,-8.467 6.711,-20.233 7.923,-32.578c0.738,-7.55 1.511,-15.355 3.394,-22.489c1.972,-7.433 5.233,-14.822 8.389,-21.972c5.844,-13.228 11.361,-25.722 8.439,-36.761c-2.822,-10.65 -13.728,-18.728 -25.278,-27.272c-6.356,-4.711 -12.933,-9.578 -18.533,-15.183c-5.117,-5.145 -6.839,-12.551 -8.511,-19.717c-1.012,-4.345 -2.545,-10.917 -4.445,-12.011c-2.105,-1.195 -8.467,0.75 -13.117,2.183c-6.9,2.133 -14.033,4.322 -20.811,2.533c-6.877,-1.822 -12.044,-7.316 -17.039,-12.633c-3.1,-3.306 -7.788,-8.294 -10.116,-8.294c-2.322,-0 -7.011,4.988 -10.111,8.294c-4.995,5.317 -10.156,10.811 -17.039,12.633c-6.761,1.784 -13.906,-0.411 -20.806,-2.533c-4.639,-1.428 -10.994,-3.394 -13.122,-2.183c-1.9,1.094 -3.422,7.655 -4.433,12c-1.667,7.161 -3.389,14.566 -8.489,19.694c-1.528,1.539 -3.134,2.3 -4.778,2.506c-0.183,1.65 -0.922,3.272 -2.45,4.827c-1.672,1.689 -4.5,2.695 -6.839,2.434c-3.867,-0.422 -6.217,-3.095 -8.5,-6.511c-2.283,3.428 -4.633,6.105 -8.5,6.539c-2.383,0.227 -5.161,-0.734 -6.828,-2.4c-1.555,-1.556 -2.311,-3.189 -2.5,-4.856c-1.666,-0.189 -3.294,-0.939 -4.855,-2.5c-5.128,-5.128 -6.861,-12.55 -8.545,-19.733c-1.011,-4.334 -2.539,-10.884 -4.427,-11.972c-2.123,-1.223 -8.484,0.744 -13.134,2.172c-6.894,2.122 -14.022,4.316 -20.794,2.522c-6.872,-1.822 -12.028,-7.322 -17.022,-12.633c-3.1,-3.306 -7.784,-8.3 -10.112,-8.3c-2.327,-0 -7.011,4.994 -10.105,8.294c-4.978,5.317 -10.133,10.811 -17,12.628c-6.745,1.805 -13.889,-0.395 -20.789,-2.528c-4.644,-1.428 -10.994,-3.378 -13.094,-2.172c-1.889,1.083 -3.406,7.644 -4.412,11.983c-1.661,7.173 -3.383,14.589 -8.483,19.717c-5.622,5.622 -12.2,10.489 -18.555,15.2c-11.545,8.544 -22.45,16.622 -25.273,27.267c-2.922,11.044 2.595,23.538 8.439,36.766c3.156,7.15 6.422,14.545 8.389,21.972c1.889,7.134 2.656,14.939 3.395,22.489c1.211,12.35 2.366,24.117 7.927,32.589c0.456,-0.339 0.895,-0.661 1.273,-0.939c5.861,-4.3 12.488,-9.161 18.094,-3.483c1.528,1.55 2.272,3.161 2.456,4.806Zm164.427,201.772c-29.383,-0 -34.65,-20.306 -39.294,-38.223c-3.25,-12.522 -6.606,-25.466 -17.095,-35.944c-13.155,-13.144 -22.361,-16.8 -32.105,-20.672c-10.778,-4.272 -21.917,-8.7 -37.328,-24.1c-15.417,-15.406 -19.855,-26.544 -24.144,-37.317c-3.484,-8.755 -6.8,-17.072 -16.978,-28.205c-0.583,0.422 -1.15,0.839 -1.622,1.189c-5.839,4.294 -12.456,9.183 -18.089,3.505c-1.528,-1.555 -2.278,-3.172 -2.461,-4.828c-1.634,-0.205 -3.234,-0.961 -4.761,-2.489c-12.417,-12.411 -14.173,-30.333 -15.728,-46.15c-0.711,-7.255 -1.384,-14.111 -2.95,-20.033c-1.656,-6.255 -4.534,-12.772 -7.584,-19.678c-6.672,-15.094 -13.561,-30.694 -9.244,-46.994c4.211,-15.9 17.844,-25.995 31.033,-35.761c6.178,-4.572 12.006,-8.889 16.8,-13.684c1.978,-1.983 3.245,-7.45 4.361,-12.272c1.895,-8.189 4.045,-17.461 11.767,-21.911c7.95,-4.6 17.217,-1.733 25.4,0.789c4.361,1.35 9.806,3.011 12.261,2.361c2.567,-0.683 6.5,-4.878 9.661,-8.244c5.795,-6.189 12.367,-13.2 21.411,-13.2c9.039,-0 15.617,7.011 21.417,13.194c3.167,3.372 7.111,7.572 9.689,8.256c2.494,0.655 7.906,-1.011 12.267,-2.356c8.177,-2.517 17.455,-5.372 25.422,-0.789c7.717,4.445 9.883,13.706 11.789,21.878c0.589,2.516 1.216,5.211 1.972,7.489c0.117,-0.084 0.233,-0.172 0.344,-0.25c4.434,-3.289 9.278,-6.911 13.884,-5.961c4.472,-0.75 9.239,2.766 13.578,5.95c0.116,0.083 0.233,0.167 0.361,0.261c0.744,-2.278 1.372,-4.961 1.95,-7.472c1.905,-8.189 4.066,-17.473 11.805,-21.923c7.945,-4.583 17.228,-1.722 25.411,0.806c4.367,1.344 9.817,3.028 12.284,2.361c2.583,-0.689 6.533,-4.889 9.705,-8.261c5.8,-6.178 12.378,-13.183 21.406,-13.183c9.033,-0 15.611,7.005 21.411,13.177c3.172,3.378 7.122,7.578 9.705,8.267c2.5,0.667 7.917,-1.017 12.284,-2.361c8.178,-2.528 17.444,-5.395 25.416,-0.806c7.734,4.45 9.895,13.739 11.806,21.928c1.122,4.822 2.4,10.289 4.389,12.289c4.778,4.778 10.611,9.095 16.783,13.667c13.189,9.766 26.828,19.861 31.039,35.766c4.317,16.295 -2.572,31.895 -9.239,46.989c-3.05,6.906 -5.933,13.423 -7.583,19.678c-1.572,5.922 -2.245,12.778 -2.956,20.033c-1.555,15.812 -3.311,33.734 -15.727,46.15c-1.523,1.528 -3.117,2.278 -4.75,2.484c-0.184,1.65 -0.928,3.266 -2.462,4.816c-5.616,5.689 -12.25,0.812 -18.094,-3.5c-0.472,-0.344 -1.039,-0.761 -1.628,-1.183c-10.166,11.128 -13.478,19.444 -16.955,28.189c-4.284,10.767 -8.717,21.906 -24.123,37.3c-15.416,15.4 -26.561,19.828 -37.338,24.1c-9.739,3.872 -18.945,7.528 -32.1,20.667c-10.495,10.494 -13.856,23.438 -17.106,35.961c-4.65,17.922 -9.922,38.239 -39.339,38.25l-0.028,-0Z" style="fill:#d2ac95;fill-rule:nonzero;"/></g></g></svg>