<?xml version="1.0" encoding="UTF-8" standalone="no"?><!DOCTYPE svg PUBLIC "-//W3C//DTD SVG 1.1//EN" "http://www.w3.org/Graphics/SVG/1.1/DTD/svg11.dtd"><svg width="1878px" height="578px" version="1.1" xmlns="http://www.w3.org/2000/svg" xmlns:xlink="http://www.w3.org/1999/xlink" xml:space="preserve" xmlns:serif="http://www.serif.com/" style="fill-rule:evenodd;clip-rule:evenodd;stroke-linejoin:round;stroke-miterlimit:2;"><g><path d="M569.444,247.611l-185.11,0l130.944,-130.889l-58.389,-58.389l-130.888,130.945l-0,-185.167l-82.556,0l-0,185.167l-130.889,-130.945l-58.334,58.389l130.889,130.889l-185.111,0l0,82.556l185.111,-0l-130.889,130.889l58.334,58.333l130.889,-130.889l-0,185.111l82.556,0l-0,-185.111l130.888,130.889l58.389,-58.333l-130.944,-130.889l185.11,-0l0,-82.556Z" style="fill:#d6a889;fill-rule:nonzero;"/><path d="M899.612,569.5l74.277,0l0,-190.944l135,135l52.556,-52.5l-135.001,-135.056l190.946,-0l-0,-74.278l-190.946,0l135.001,-135l-52.556,-52.555l-135,135.055l0,-190.944l-74.277,-0l0,190.944l-135,-135.055l-52.556,52.555l135.001,135l-190.945,0l-0,74.278l190.945,-0l-135.001,135.056l52.556,52.5l135,-135l0,190.944Zm82.555,8.278l-90.833,-0l0,-179.278l-126.722,126.722l-64.223,-64.166l126.778,-126.778l-179.277,-0l-0,-90.778l179.277,0l-126.778,-126.778l64.223,-64.222l126.722,126.778l0,-179.278l90.833,0l-0,179.278l126.722,-126.778l64.223,64.222l-126.778,126.778l179.278,0l-0,90.778l-179.278,-0l126.778,126.778l-64.223,64.166l-126.722,-126.722l-0,179.278Z" style="fill:#d6a889;fill-rule:nonzero;"/><path d="M1873.5,247.611l-185.111,0l130.889,-130.889l-58.333,-58.389l-130.89,130.945l0,-185.167l-82.556,0l0,185.167l-130.889,-130.945l-58.388,58.389l130.944,130.889l-185.166,0l0,82.556l185.166,-0l-130.944,130.889l58.388,58.333l130.889,-130.889l0,185.111l82.556,0l0,-185.111l130.89,130.889l58.333,-58.333l-130.889,-130.889l185.111,-0l0,-82.556Z" style="fill:#d6a889;fill-rule:nonzero;"/><path d="M1551.61,569.5l74.279,0l-0,-190.944l135.056,135l52.499,-52.5l-135,-135.056l190.944,-0l-0,-74.278l-190.944,0l135,-135l-52.499,-52.555l-135.056,135.055l-0,-190.944l-74.279,-0l0,190.944l-135,-135.055l-52.555,52.555l135.056,135l-190.944,0l-0,74.278l190.944,-0l-135.056,135.056l52.555,52.5l135,-135l0,190.944Zm82.556,8.278l-90.778,-0l0,-179.278l-126.778,126.722l-64.221,-64.166l126.777,-126.778l-179.277,-0l0,-90.778l179.277,0l-126.777,-126.778l64.221,-64.222l126.778,126.778l0,-179.278l90.778,0l0,179.278l126.779,-126.778l64.165,64.222l-126.721,126.778l179.278,0l-0,90.778l-179.278,-0l126.721,126.778l-64.165,64.166l-126.779,-126.722l0,179.278Z" style="fill:#d6a889;fill-rule:nonzero;"/></g></svg>