<?xml version="1.0" encoding="UTF-8" standalone="no"?><!DOCTYPE svg PUBLIC "-//W3C//DTD SVG 1.1//EN" "http://www.w3.org/Graphics/SVG/1.1/DTD/svg11.dtd"><svg width="6789px" height="3655px" version="1.1" xmlns="http://www.w3.org/2000/svg" xmlns:xlink="http://www.w3.org/1999/xlink" xml:space="preserve" xmlns:serif="http://www.serif.com/" style="fill-rule:evenodd;clip-rule:evenodd;stroke-linejoin:round;stroke-miterlimit:2;"><g><path d="M772.144,40.116c-396.805,0 -732.033,133.856 -732.033,292.295c0,158.444 335.228,292.3 732.033,292.3c396.8,0 732.028,-133.856 732.028,-292.3c0,-158.439 -335.228,-292.295 -732.028,-292.295Zm0,624.706c-432.983,0 -772.144,-146.011 -772.144,-332.411c0,-186.4 339.161,-332.411 772.144,-332.411c432.978,0 772.139,146.011 772.139,332.411c0,186.4 -339.161,332.411 -772.139,332.411Z" style="fill:#d6a889;fill-rule:nonzero;"/><path d="M772.144,364.961c-396.805,0 -732.033,133.861 -732.033,292.299c0,158.44 335.228,292.301 732.033,292.301c396.8,-0 732.028,-133.861 732.028,-292.301c0,-158.438 -335.228,-292.299 -732.028,-292.299Zm0,624.711c-432.983,0 -772.144,-146.017 -772.144,-332.412c0,-186.405 339.161,-332.416 772.144,-332.416c432.978,0 772.139,146.011 772.139,332.416c0,186.395 -339.161,332.412 -772.139,332.412Z" style="fill:#d6a889;fill-rule:nonzero;"/><path d="M772.144,689.811c-396.805,-0 -732.033,133.855 -732.033,292.3c0,158.439 335.228,292.3 732.033,292.3c396.8,-0 732.028,-133.861 732.028,-292.3c0,-158.445 -335.228,-292.3 -732.028,-292.3Zm0,624.711c-432.983,-0 -772.144,-146.006 -772.144,-332.411c0,-186.4 339.161,-332.411 772.144,-332.411c432.978,-0 772.139,146.011 772.139,332.411c0,186.405 -339.161,332.411 -772.139,332.411Z" style="fill:#d6a889;fill-rule:nonzero;"/><path d="M772.144,1014.67c-396.805,0 -732.033,133.862 -732.033,292.295c0,158.433 335.228,292.294 732.033,292.294c396.8,0 732.028,-133.861 732.028,-292.294c0,-158.433 -335.228,-292.295 -732.028,-292.295Zm0,624.7c-432.983,0 -772.144,-146.005 -772.144,-332.405c0,-186.406 339.161,-332.406 772.144,-332.406c432.978,0 772.139,146 772.139,332.406c0,186.4 -339.161,332.405 -772.139,332.405Z" style="fill:#d6a889;fill-rule:nonzero;"/><path d="M772.144,1339.51c-396.805,-0 -732.033,133.861 -732.033,292.294c0,158.45 335.228,292.311 732.033,292.311c396.8,0 732.028,-133.861 732.028,-292.311c0,-158.433 -335.228,-292.294 -732.028,-292.294Zm0,624.716c-432.983,0 -772.144,-146.016 -772.144,-332.422c0,-186.4 339.161,-332.405 772.144,-332.405c432.978,-0 772.139,146.005 772.139,332.405c0,186.406 -339.161,332.422 -772.139,332.422Z" style="fill:#d6a889;fill-rule:nonzero;"/><path d="M772.144,1664.36c-396.805,-0 -732.033,133.855 -732.033,292.295c0,158.443 335.228,292.305 732.033,292.305c396.8,0 732.028,-133.862 732.028,-292.305c0,-158.44 -335.228,-292.295 -732.028,-292.295Zm0,624.711c-432.983,-0 -772.144,-146.016 -772.144,-332.416c0,-186.407 339.161,-332.412 772.144,-332.412c432.978,-0 772.139,146.005 772.139,332.412c0,186.4 -339.161,332.416 -772.139,332.416Z" style="fill:#d6a889;fill-rule:nonzero;"/><path d="M772.144,1989.21c-396.805,-0 -732.033,133.862 -732.033,292.306c0,158.439 335.228,292.299 732.033,292.299c396.8,0 732.028,-133.86 732.028,-292.299c0,-158.444 -335.228,-292.306 -732.028,-292.306Zm0,624.717c-432.983,0 -772.144,-146.005 -772.144,-332.411c0,-186.4 339.161,-332.417 772.144,-332.417c432.978,-0 772.139,146.017 772.139,332.417c0,186.406 -339.161,332.411 -772.139,332.411Z" style="fill:#d6a889;fill-rule:nonzero;"/><path d="M3630.07,332.389c0,59.367 -34.494,114.716 -95.466,162.449c-10.695,8.423 -22.195,16.578 -34.495,24.467c-108.3,69.661 -276.1,119.8 -474.783,137.983c-0.134,-0.133 -0.267,-0.133 -0.4,0c-53.617,4.95 -109.506,7.489 -167,7.489c-57.489,0 -113.245,-2.539 -166.861,-7.489l-0.267,0c-0.133,-0.133 -0.267,0 -0.267,0c-198.689,-18.316 -366.616,-68.322 -474.783,-137.983c-12.306,-7.889 -23.8,-16.044 -34.5,-24.467c-60.967,-47.733 -95.461,-103.082 -95.461,-162.449c-0,-186.384 339.205,-332.389 772.139,-332.389c432.939,-0 772.144,146.005 772.144,332.389Z" style="fill:#d6a889;fill-rule:nonzero;"/><path d="M3534.61,494.838c-10.695,8.423 -22.195,16.578 -34.495,24.467c57.095,41.45 89.85,88.512 89.85,137.983c0,49.473 -32.755,96.54 -89.716,137.851c-11.634,8.422 -24.2,16.577 -37.839,24.6c-133.034,77.683 -356.723,129.828 -604.478,129.828c-247.75,-0 -471.439,-52.145 -604.478,-129.828c-13.633,-8.023 -26.205,-16.178 -37.833,-24.6c-56.961,-41.311 -89.717,-88.378 -89.717,-137.851c0,-49.471 32.756,-96.533 89.85,-137.983c-12.306,-7.889 -23.8,-16.044 -34.5,-24.467c-60.967,47.734 -95.461,103.09 -95.461,162.45c-0,59.367 34.361,114.584 95.328,162.317c10.7,8.428 22.194,16.717 34.5,24.605c108.166,69.657 275.961,119.662 474.783,137.979c0.133,-0.128 0.267,-0.128 0.4,-0c0.133,-0.128 0.133,-0.128 0.267,-0c53.616,4.95 109.372,7.489 166.861,7.489c57.494,-0 113.383,-2.539 167,-7.489c0.133,-0.128 0.133,-0 0.133,-0c0.133,-0.128 0.133,-0.128 0.267,-0c0.133,-0.128 0.133,-0 0.133,-0c198.683,-18.178 366.484,-68.456 474.784,-137.979c12.3,-7.888 23.8,-16.177 34.494,-24.605c60.972,-47.733 95.333,-102.95 95.333,-162.317c0,-59.36 -34.494,-114.716 -95.466,-162.45Z" style="fill:#d6a889;fill-rule:nonzero;"/><path d="M3500.11,1120.04c-11.633,8.427 -24.2,16.583 -37.705,24.472l-0.134,-0c-133.033,77.811 -356.722,129.961 -604.344,129.961c-247.617,-0 -471.306,-52.15 -604.339,-129.961l-0.139,-0c-13.5,-7.889 -26.072,-16.045 -37.7,-24.472c-57.094,-41.312 -89.85,-88.378 -89.85,-137.978c0,-49.472 32.756,-96.539 89.717,-137.851c11.628,-8.427 24.2,-16.583 37.833,-24.471c133.039,-77.811 356.728,-129.956 604.478,-129.956c247.755,-0 471.444,52.145 604.478,129.956c13.639,7.888 26.205,16.044 37.839,24.471c56.961,41.312 89.716,88.379 89.716,137.851c0,49.6 -32.755,96.666 -89.85,137.978Zm34.628,-300.434c-10.694,-8.422 -22.194,-16.578 -34.494,-24.466c-108.167,-69.528 -276.234,-119.667 -474.917,-137.851c-0.134,-0.133 -0.267,-0.133 -0.4,0c-53.617,4.95 -109.506,7.489 -167,7.489c-57.489,0 -113.245,-2.539 -166.861,-7.489l-0.267,0c-0.133,-0.133 -0.267,0 -0.267,0c-198.689,18.184 -366.75,68.323 -474.916,137.851c-12.306,7.888 -23.8,16.044 -34.5,24.466c-60.967,47.734 -95.328,103.089 -95.328,162.456c-0,59.361 34.361,114.716 95.328,162.45c10.7,8.422 22.194,16.578 34.5,24.6c108.166,69.528 276.094,119.667 474.65,137.85c53.75,5.078 109.9,7.622 167.661,7.622c57.761,0 113.917,-2.544 167.667,-7.622c198.549,-18.183 366.483,-68.322 474.65,-137.85c12.3,-8.022 23.8,-16.178 34.494,-24.6c60.972,-47.734 95.333,-103.089 95.333,-162.45c0,-59.367 -34.361,-114.722 -95.333,-162.456Z" style="fill:#d6a889;fill-rule:nonzero;"/><path d="M2857.93,1014.67c-396.8,0 -732.028,133.862 -732.028,292.295c0,158.433 335.228,292.294 732.028,292.294c396.805,0 732.033,-133.861 732.033,-292.294c0,-158.433 -335.228,-292.295 -732.033,-292.295Zm-0,624.7c-432.978,0 -772.139,-146.005 -772.139,-332.405c-0,-186.406 339.161,-332.406 772.139,-332.406c432.983,0 772.144,146 772.144,332.406c0,186.4 -339.161,332.405 -772.144,332.405Z" style="fill:#d6a889;fill-rule:nonzero;"/><path d="M2857.93,1339.51c-396.8,-0 -732.028,133.861 -732.028,292.294c0,158.45 335.228,292.311 732.028,292.311c396.805,0 732.033,-133.861 732.033,-292.311c0,-158.433 -335.228,-292.294 -732.033,-292.294Zm-0,624.716c-432.978,0 -772.139,-146.016 -772.139,-332.422c-0,-186.4 339.161,-332.405 772.139,-332.405c432.983,-0 772.144,146.005 772.144,332.405c0,186.406 -339.161,332.422 -772.144,332.422Z" style="fill:#d6a889;fill-rule:nonzero;"/><path d="M2857.93,1664.36c-396.8,-0 -732.028,133.855 -732.028,292.295c0,158.443 335.228,292.305 732.028,292.305c396.805,0 732.033,-133.862 732.033,-292.305c0,-158.44 -335.228,-292.295 -732.033,-292.295Zm-0,624.711c-432.978,-0 -772.139,-146.016 -772.139,-332.416c-0,-186.407 339.161,-332.412 772.139,-332.412c432.983,-0 772.144,146.005 772.144,332.412c0,186.4 -339.161,332.416 -772.144,332.416Z" style="fill:#d6a889;fill-rule:nonzero;"/><path d="M2857.93,1989.21c-396.8,-0 -732.028,133.862 -732.028,292.306c0,158.439 335.228,292.299 732.028,292.299c396.805,0 732.033,-133.86 732.033,-292.299c0,-158.444 -335.228,-292.306 -732.033,-292.306Zm-0,624.717c-432.978,0 -772.139,-146.005 -772.139,-332.411c-0,-186.4 339.161,-332.417 772.139,-332.417c432.983,-0 772.144,146.017 772.144,332.417c0,186.406 -339.161,332.411 -772.144,332.411Z" style="fill:#d6a889;fill-rule:nonzero;"/><rect x="4082.83" y="326.739" width="36.306" height="435.655" style="fill:#d6a889;fill-rule:nonzero;"/><rect x="6587.83" y="326.739" width="36.333" height="435.655" style="fill:#d6a889;fill-rule:nonzero;"/><rect x="4282.51" y="526.416" width="2141.98" height="36.3" style="fill:#d6a889;fill-rule:nonzero;"/><path d="M5315.94,238.905c22.278,35.923 31.667,51.095 37.444,60.311l0.334,0c6.833,-10.678 20.055,-31.7 38.555,-60.311l35.889,0l-55.889,79.911l56.278,86.622l-36.889,0c-19.222,-31.733 -32.389,-53.321 -38.722,-63.877l-0.333,-0c-5.334,9.188 -18.389,31.289 -38.556,63.877l-35.611,0l55.056,-82.794l-53.612,-83.739l36.056,0Z" style="fill:#d6a889;fill-rule:nonzero;"/><rect x="4082.83" y="1107.28" width="36.306" height="435.655" style="fill:#d6a889;fill-rule:nonzero;"/><rect x="6587.83" y="1107.28" width="36.333" height="435.655" style="fill:#d6a889;fill-rule:nonzero;"/><rect x="4282.51" y="1306.96" width="2141.98" height="36.306" style="fill:#d6a889;fill-rule:nonzero;"/><path d="M5313.99,958.194c23.445,70.756 37.389,113.522 41.223,129.122l0.277,0c4.723,-17.328 15.501,-52.933 39.667,-129.122l30.328,0l-55.439,162.9c-15.722,45.567 -27.611,57.506 -60.667,57.506c-4.666,-0 -11.166,-0.312 -17.444,-1.062l-0,-25.672c3.722,0.484 8.333,0.789 12.555,0.789c19.001,0 26.612,-8.088 35.167,-32.444l-58.166,-162.017l32.499,0Z" style="fill:#d6a889;fill-rule:nonzero;"/><rect x="4082.83" y="1887.83" width="36.306" height="435.65" style="fill:#d6a889;fill-rule:nonzero;"/><rect x="6587.83" y="1887.83" width="36.333" height="435.65" style="fill:#d6a889;fill-rule:nonzero;"/><rect x="4282.51" y="2087.51" width="2141.98" height="36.305" style="fill:#d6a889;fill-rule:nonzero;"/><path d="M5162.28,1781.45c18.534,29.929 26.372,42.568 31.2,50.251l0.278,-0c5.672,-8.901 16.694,-26.412 32.111,-50.251l29.9,0l-46.555,66.578l46.889,72.173l-30.728,-0c-16.039,-26.439 -26.983,-44.423 -32.295,-53.223l-0.261,0c-4.444,7.656 -15.344,26.067 -32.122,53.223l-29.678,-0l45.889,-68.983l-44.7,-69.768l30.072,0Z" style="fill:#d6a889;fill-rule:nonzero;"/><path d="M5339.61,1720.42c-23.389,30.772 -42.945,71.656 -42.945,121.877c0,45.967 15.833,88.901 42.945,124.973l-26.778,-0c-20.889,-28.067 -40.834,-70.561 -40.834,-125.245c0,-54.06 20.5,-94.399 40.834,-121.605l26.778,-0Z" style="fill:#d6a889;fill-rule:nonzero;"/><path d="M5396.16,1781.45c20.834,62.834 33.167,100.818 36.556,114.667l0.278,0c4.222,-15.383 13.777,-47 35.277,-114.667l26.889,0l-49.222,144.673c-13.945,40.461 -24.5,51.066 -53.889,51.066c-4.166,0 -9.889,-0.271 -15.5,-0.944l0,-22.789c3.333,0.417 7.389,0.689 11.167,0.689c16.883,0 23.667,-7.184 31.278,-28.811l-51.723,-143.884l28.889,0Z" style="fill:#d6a889;fill-rule:nonzero;"/><path d="M5508.33,1967.27c23.444,-30.772 43,-71.65 43,-121.878c-0,-45.956 -15.889,-88.9 -43,-124.972l26.778,-0c20.888,28.066 40.833,70.566 40.833,125.245c0,54.066 -20.5,94.405 -40.833,121.605l-26.778,-0Z" style="fill:#d6a889;fill-rule:nonzero;"/><path d="M2083.04,3085.88l-311.216,0l-417.5,417.5l311.216,0l417.5,-417.5Z" style="fill:#d6a889;fill-rule:nonzero;"/><path d="M2625.3,3085.88l-311.217,0l-417.5,417.5l311.217,0l417.5,-417.5Z" style="fill:#d6a889;fill-rule:nonzero;"/><path d="M269.811,3503.38l311.222,0l417.5,-417.5l-311.216,0l-417.506,417.5Z" style="fill:#d6a889;fill-rule:nonzero;"/><path d="M1540.79,3085.88l-311.217,0l-417.5,417.5l311.211,0l417.506,-417.5Z" style="fill:#d6a889;fill-rule:nonzero;"/><path d="M2981.09,3503.38l431.523,0l-0,-417.5l-14.023,0l-417.5,417.5Z" style="fill:#d6a889;fill-rule:nonzero;"/><path d="M456.272,3085.88l-419.972,0l-0,417.5l2.472,0l417.5,-417.5Z" style="fill:#d6a889;fill-rule:nonzero;"/><path d="M3167.56,3085.88l-311.217,0l-417.5,417.5l311.216,0l417.501,-417.5Z" style="fill:#d6a889;fill-rule:nonzero;"/><path d="M4614.52,3654.49c1.217,-92.55 2.345,-166.877 0,-226.8c-2.35,59.923 -1.217,134.25 0,226.8Z" style="fill:#d6a889;fill-rule:nonzero;"/><path d="M4146.42,3186.39c92.55,1.217 166.878,2.35 226.8,-0c-59.922,-2.345 -134.25,-1.217 -226.8,-0Z" style="fill:#d6a889;fill-rule:nonzero;"/><path d="M4614.52,2718.29c-1.217,92.55 -2.35,166.883 0,226.8c2.345,-59.917 1.217,-134.25 0,-226.8Z" style="fill:#d6a889;fill-rule:nonzero;"/><path d="M5082.62,3186.39c-92.55,-1.217 -166.883,-2.345 -226.8,-0c59.917,2.35 134.25,1.217 226.8,-0Z" style="fill:#d6a889;fill-rule:nonzero;"/><path d="M4855.82,3186.39c-100.205,-3.927 -159.639,-17.839 -194.561,-57.711l290.283,-290.289l-9.783,-9.783l-289.078,289.078c-25.1,-36.312 -34.961,-90.889 -38.161,-172.595c-3.2,81.706 -13.061,136.283 -38.167,172.595l-289.077,-289.078l-9.784,9.783l290.289,290.289c-34.922,39.872 -94.355,53.784 -194.561,57.711c81.706,3.206 136.284,13.061 172.589,38.167l-309.833,309.833l9.783,9.783l311.05,-311.044c39.872,34.923 53.783,94.356 57.711,194.561c3.928,-100.205 17.839,-159.638 57.711,-194.561l311.045,311.044l9.783,-9.783l-309.833,-309.833c36.311,-25.106 90.889,-34.961 172.594,-38.167Z" style="fill:#d6a889;fill-rule:nonzero;"/><path d="M5503.99,3654.49c1.223,-92.55 2.334,-166.877 0,-226.8c-2.388,59.923 -1.222,134.25 0,226.8Z" style="fill:#d6a889;fill-rule:nonzero;"/><path d="M5035.88,3186.39c92.55,1.217 166.883,2.35 226.783,-0c-59.9,-2.345 -134.233,-1.217 -226.783,-0Z" style="fill:#d6a889;fill-rule:nonzero;"/><path d="M5503.99,2718.29c-1.222,92.55 -2.388,166.883 0,226.8c2.334,-59.917 1.223,-134.25 0,-226.8Z" style="fill:#d6a889;fill-rule:nonzero;"/><path d="M5972.11,3186.39c-92.555,-1.217 -166.888,-2.345 -226.833,-0c59.945,2.35 134.278,1.217 226.833,-0Z" style="fill:#d6a889;fill-rule:nonzero;"/><path d="M5745.27,3186.39c-100.222,-3.927 -159.611,-17.839 -194.555,-57.711l290.277,-290.289l-9.777,-9.783l-289.056,289.078c-25.111,-36.312 -35,-90.889 -38.167,-172.595c-3.222,81.706 -13.055,136.283 -38.172,172.595l-289.083,-289.078l-9.783,9.783l290.261,290.289c-34.889,39.872 -94.334,53.784 -194.556,57.711c81.722,3.206 136.278,13.061 172.606,38.167l-309.828,309.833l9.783,9.783l311.044,-311.044c39.895,34.923 53.784,94.356 57.728,194.561c3.889,-100.205 17.834,-159.638 57.723,-194.561l310.999,311.044l9.778,-9.783l-309.833,-309.833c36.333,-25.106 90.889,-34.961 172.611,-38.167Z" style="fill:#d6a889;fill-rule:nonzero;"/><path d="M6320.83,3654.49c1.222,-92.55 2.333,-166.877 -0,-226.8c-2.334,59.923 -1.222,134.25 -0,226.8Z" style="fill:#d6a889;fill-rule:nonzero;"/><path d="M5852.72,3186.39c92.555,1.217 166.889,2.35 226.833,-0c-59.944,-2.345 -134.278,-1.217 -226.833,-0Z" style="fill:#d6a889;fill-rule:nonzero;"/><path d="M6320.83,2718.29c-1.222,92.55 -2.334,166.883 -0,226.8c2.333,-59.917 1.222,-134.25 -0,-226.8Z" style="fill:#d6a889;fill-rule:nonzero;"/><path d="M6788.94,3186.39c-92.556,-1.217 -166.889,-2.345 -226.833,-0c59.944,2.35 134.277,1.217 226.833,-0Z" style="fill:#d6a889;fill-rule:nonzero;"/><path d="M6562.11,3186.39c-100.167,-3.927 -159.611,-17.839 -194.556,-57.711l290.333,-290.289l-9.833,-9.783l-289.056,289.078c-25.111,-36.312 -34.944,-90.889 -38.166,-172.595c-3.222,81.706 -13.056,136.283 -38.167,172.595l-289.056,-289.078l-9.777,9.783l290.277,290.289c-34.944,39.872 -94.389,53.784 -194.555,57.711c81.667,3.206 136.278,13.061 172.556,38.167l-309.834,309.833l9.778,9.783l311.055,-311.044c39.89,34.923 53.778,94.356 57.723,194.561c3.944,-100.205 17.833,-159.638 57.722,-194.561l311.056,311.044l9.777,-9.783l-309.833,-309.833c36.278,-25.106 90.889,-34.961 172.556,-38.167Z" style="fill:#d6a889;fill-rule:nonzero;"/></g></svg>